<svg width="24" height="24" viewBox="0 0 24 24" fill="none" xmlns="http://www.w3.org/2000/svg">
<path fill-rule="evenodd" clip-rule="evenodd" d="M16.939 8.97345C17.3679 9.423 17.3511 10.1351 16.9016 10.564L11.3984 15.814C10.9635 16.2289 10.2792 16.2286 9.84463 15.8133L7.09775 13.1883C6.64856 12.7591 6.63241 12.0469 7.06167 11.5978C7.49093 11.1486 8.20306 11.1324 8.65225 11.5617L10.6225 13.4445L15.3484 8.93601C15.798 8.50713 16.5101 8.52389 16.939 8.97345Z" fill="#52C41A"/>
<path fill-rule="evenodd" clip-rule="evenodd" d="M12 4.125C7.65076 4.125 4.125 7.65076 4.125 12C4.125 16.3492 7.65076 19.875 12 19.875C16.3492 19.875 19.875 16.3492 19.875 12C19.875 7.65076 16.3492 4.125 12 4.125ZM1.875 12C1.875 6.40812 6.40812 1.875 12 1.875C17.5919 1.875 22.125 6.40812 22.125 12C22.125 17.5919 17.5919 22.125 12 22.125C6.40812 22.125 1.875 17.5919 1.875 12Z" fill="#52C41A"/>
</svg>
